<svg width="575" height="97" viewBox="0 0 575 97" fill="none" xmlns="http://www.w3.org/2000/svg">
<path d="M0 95V1.90909H65.4545V22.2727H25.2727V38.2727H61.4545V58.6364H25.2727V95H0ZM164.932 48.4545C164.932 58.8182 162.917 67.5606 158.886 74.6818C154.856 81.7727 149.417 87.1515 142.568 90.8182C135.72 94.4545 128.083 96.2727 119.659 96.2727C111.174 96.2727 103.508 94.4394 96.6591 90.7727C89.8409 87.0758 84.4167 81.6818 80.3864 74.5909C76.3864 67.4697 74.3864 58.7576 74.3864 48.4545C74.3864 38.0909 76.3864 29.3636 80.3864 22.2727C84.4167 15.1515 89.8409 9.77272 96.6591 6.13636C103.508 2.46969 111.174 0.63636 119.659 0.63636C128.083 0.63636 135.72 2.46969 142.568 6.13636C149.417 9.77272 154.856 15.1515 158.886 22.2727C162.917 29.3636 164.932 38.0909 164.932 48.4545ZM138.932 48.4545C138.932 42.8788 138.189 38.1818 136.705 34.3636C135.25 30.5151 133.083 27.6061 130.205 25.6364C127.356 23.6364 123.841 22.6364 119.659 22.6364C115.477 22.6364 111.947 23.6364 109.068 25.6364C106.22 27.6061 104.053 30.5151 102.568 34.3636C101.114 38.1818 100.386 42.8788 100.386 48.4545C100.386 54.0303 101.114 58.7424 102.568 62.5909C104.053 66.4091 106.22 69.3182 109.068 71.3182C111.947 73.2879 115.477 74.2727 119.659 74.2727C123.841 74.2727 127.356 73.2879 130.205 71.3182C133.083 69.3182 135.25 66.4091 136.705 62.5909C138.189 58.7424 138.932 54.0303 138.932 48.4545ZM266.807 48.4545C266.807 58.8182 264.792 67.5606 260.761 74.6818C256.731 81.7727 251.292 87.1515 244.443 90.8182C237.595 94.4545 229.958 96.2727 221.534 96.2727C213.049 96.2727 205.383 94.4394 198.534 90.7727C191.716 87.0758 186.292 81.6818 182.261 74.5909C178.261 67.4697 176.261 58.7576 176.261 48.4545C176.261 38.0909 178.261 29.3636 182.261 22.2727C186.292 15.1515 191.716 9.77272 198.534 6.13636C205.383 2.46969 213.049 0.63636 221.534 0.63636C229.958 0.63636 237.595 2.46969 244.443 6.13636C251.292 9.77272 256.731 15.1515 260.761 22.2727C264.792 29.3636 266.807 38.0909 266.807 48.4545ZM240.807 48.4545C240.807 42.8788 240.064 38.1818 238.58 34.3636C237.125 30.5151 234.958 27.6061 232.08 25.6364C229.231 23.6364 225.716 22.6364 221.534 22.6364C217.352 22.6364 213.822 23.6364 210.943 25.6364C208.095 27.6061 205.928 30.5151 204.443 34.3636C202.989 38.1818 202.261 42.8788 202.261 48.4545C202.261 54.0303 202.989 58.7424 204.443 62.5909C205.928 66.4091 208.095 69.3182 210.943 71.3182C213.822 73.2879 217.352 74.2727 221.534 74.2727C225.716 74.2727 229.231 73.2879 232.08 71.3182C234.958 69.3182 237.125 66.4091 238.58 62.5909C240.064 58.7424 240.807 54.0303 240.807 48.4545ZM314.318 95H278.5V1.90909H313.955C323.53 1.90909 331.803 3.77273 338.773 7.5C345.773 11.197 351.167 16.5303 354.955 23.5C358.773 30.4394 360.682 38.7576 360.682 48.4545C360.682 58.1515 358.788 66.4848 355 73.4545C351.212 80.3939 345.848 85.7273 338.909 89.4545C331.97 93.1515 323.773 95 314.318 95ZM303.773 73.5455H313.409C318.015 73.5455 321.939 72.803 325.182 71.3182C328.455 69.8333 330.939 67.2727 332.636 63.6364C334.364 60 335.227 54.9394 335.227 48.4545C335.227 41.9697 334.348 36.9091 332.591 33.2727C330.864 29.6364 328.318 27.0758 324.955 25.5909C321.621 24.1061 317.53 23.3636 312.682 23.3636H303.773V73.5455Z" fill="black"/>
<path d="M397.648 1.90909V95H372.375V1.90909H397.648ZM409.625 95V1.90909H475.08V22.2727H434.898V38.2727H471.08V58.6364H434.898V95H409.625ZM480.557 1.90909H508.739L526.92 39.7273H527.648L545.83 1.90909H574.011L539.83 65.7273V95H514.739V65.7273L480.557 1.90909Z" fill="white"/>
</svg>
